<?xml version="1.0" encoding="UTF-8"?>
<svg xmlns="http://www.w3.org/2000/svg" version="1.1" viewBox="0 0 800 800">
  <g transform="translate(-137.67 19.91) scale(1.2770)">
    <!-- Generator: Adobe Illustrator 29.8.2, SVG Export Plug-In . SVG Version: 2.1.1 Build 3)  -->
  <defs>
    <style>
      .st0 {
        fill: #95dbf4;
      }

      .st1 {
        fill: #3c92f0;
      }

      .st2 {
        fill: none;
        stroke: #3c92f0;
        stroke-miterlimit: 10;
        stroke-width: 11px;
      }
    </style>
  </defs>
  <path class="st0" d="M201.62,188.07c2.4,0,4.35,1.95,4.35,4.35,0,1.22-.51,2.36-1.38,3.18-.6.56-1.3.88-1.94,1.47-11.75,9.6-12.33,15-12.33,19.7v58.77l38.97-44.02c16.18-18.28,16.89-30.52,13.16-35.03-.38-.45-.91-.85-1.3-1.32-.61-.75-.97-1.7-.97-2.74,0-2.4,1.95-4.35,4.35-4.35h43.51c2.4,0,4.35,1.95,4.35,4.35,0,2.04-1.4,3.74-3.28,4.22-10.12,3-30.19,19.78-47.98,39.87l-28.75,32.48c14.16-3.11,27.58,3.59,41.1,23.86l19.63,30.51c6.21,9.65,12.82,19.7,20.59,18.04,1.34-.29,2.45-1.12,3.95-1.19,2.4,0,4.35,1.95,4.35,4.35-.01,1.08-.56,2.26-1,3.3-3.55,7.48-13.87,14.11-25.42,14.11-16.2,0-25.77-9.94-36.36-25.62l-16.6-25.81c-6.3-9.79-17.09-24.63-25.25-22.73-2.85.71-5.04,3.85-7.04,6.08v39.38c0,4.7.58,10.09,12.33,19.7.64.6,1.34.91,1.94,1.47.87.81,1.38,1.96,1.38,3.17,0,2.4-1.95,4.35-4.35,4.35h-58.12c-2.4,0-4.35-1.95-4.35-4.35,0-1.21.51-2.36,1.38-3.17.6-.56,1.3-.88,1.95-1.47,11.75-9.6,12.33-15,12.33-19.7v-116.51c0-4.7-.58-10.09-12.33-19.7-.64-.6-1.34-.91-1.95-1.47-.87-.81-1.38-1.96-1.38-3.17,0-2.4,1.95-4.35,4.35-4.35h58.12Z"/>
  <g>
    <path class="st1" d="M538.03,210.38l-10.74,20.18c-32.53,25.11-62.95,54.34-92.34,84.48-7.83,8.03-33.67,40-41.53,41.97-7.1,1.78-10.39-.07-13.89-7.25-1.97-4.04-2.59-5.31-4.61-8.89-.19-.33.55-6.17.09-7.91-3.04-11.66-7.51-23.7-9.64-35.76-.62-3.54,1.31-8.47-1.42-12.2l1.96-1.74c-1.45.13-2.09-.59-2.49-2.21-.8-3.18-1.65-21.97.5-23.93l7.81,2.42-3.86,4.05,4.73-1.01c.39,1.54,1.12,2.97,1.55,4.49,7,24.82,11.17,52.55,17.77,77.25.44,1.65-.45,2.95,1.64,2.46,3.14-.74,6.79-10.64,8.85-13.78.94-1.44,2.38-1.73,3.05-2.71,2.68-3.86,2.65-8.23,8.58-10.04,2.66-.81-.72,4.2,1.94,2.32,1.47-1.04,2.9-3.88,4.38-5.2l-3.88-2.32c-.3-1.48,2.45-4.15,3.37-5.22,14.54-16.79,32.61-32.64,48.78-46.67,1.01-.88,3.04-3.73,3.29-5.34l1.92,2.3c-.79-6.11,5.03-6.03,6.56-7.42,3.23-2.93,4.72-9.6,9.98-7.61l-.57-3.53c5.54-2.16,11.16-9.54,16.12-11.99.99-.49,2.5.76,2.84.47.42-.36.33-3.4,1.28-4.34.81-.81,4.52-1.16,6.29-2.34,5.47-3.65,10.11-11.84,16.81-7.17.19-3.65,1.66-5.78,4.87-5.78Z"/>
    <path class="st1" d="M335.21,260.79c.36.56,1.29.58,1.82,1.91,8.13,20.33,15.6,52.27,17.32,75.35.42,5.64,2.37,10.89.78,16.77-3.03,1.97-5.12-2.18-8.66-1.03,1.43-3.41-1.52-5.49-2.84-9.92-6.38-21.56-12.32-44.78-16.68-66.91l-4.25-10.98c-3.28.74-6.77,11.41-8.93,14.81-1.14,1.8-4.93,7.23-6.21,8.8-2.37,2.91-6.53,3.02-5.84,7.53l-1.54-2.38,1.55-3.39-4.85,4.05,3.86,3.45c-5.47,8-12.48,14.04-19.09,20.64-3.27,3.27-6.42,9.86-12,10.02l1.94,1.72c-3.68,2.54-6.12,6.63-9.23,9.84-7.78,8.02-16.8,15.68-25.15,23.34-3.19,2.93-4.09,8.38-9.38,6.74l.02,4c-5.45,2.23-9.76,8.57-14.67,11.54-1.4.85-3.21.34-3.79.71-.13.08,1.17,1.94-.41,3.43s-4.63,2.17-6.72,3.67c-5.54,3.98-9.64,11.08-16.2,6.72-.46,3.23-1.46,6.54-4.89,5.77,4.93-4.47,6.66-15.12,10.77-20.14,1.63-2,4.77-3.09,6.65-4.82,28.07-25.93,55.68-52.47,81.79-80.84,9.13-9.92,34.72-44.55,45.2-45.71,6.07-.67,6.36.18,9.64,5.31Z"/>
    <path class="st1" d="M584.1,229.63c1.37,2.4,4.6,8.73,5.25,11.66,3.62,16.19,7.88,37.81,9.36,55.28.35,4.17,1.8,25.92-.36,27.79l-6.85-1.2v-2.37s2.92-2.86,2.92-2.86l-4.73,1.01c-5.25-24.94-11.98-49.72-14.99-75.28l-3.13-10.18c-4.14.82-15.21,24.91-20.43,25.46-2.98.32-4.32-2.7-7.25,2.89l3.87,2.31c-2.03,2.19-3.76,4.82-5.82,6.96-4.83,5.01-13.79,13.73-18.97,17.95-9.09,7.41-18.62,17.52-28.89,24.36-1.73,1.15-3.02,4.17-6.62,3.37l.99,3.45c-7.08.78-10.69,12.45-17.51,10.43l.55,3.53c-.76,1.22-7.51,3.97-9.24,5.21-.76.55-6.14,6.19-6.6,6.33-1.18.36-3.48-.58-4.11.1-.36.39.48,2.61-.69,3.38-1.23.81-4.42,1.1-6.55,2.41-3.41,2.09-7.52,6.41-11.05,7.52-2.35.74-4.36-1.88-5.13-1.39-1.86,1.17-2.07,6.61-5.82,5.28.06-1.64,1.96-1.64,2.6-2.67,2.37-3.86,6.06-13.93,8.36-16.67,1.14-1.37,9.17-5.46,11.71-7.47,28.72-22.74,56.57-47.02,83.79-72.68,8.86-8.35,32.44-35.59,41.14-38.97,3.45-1.34,8.77-2.56,11.84.3,1.19,1.11,1.45,3.19,2.34,4.75Z"/>
  </g>
  <path class="st2" d="M282.65,307.79c18.92-1.87,37.84-3.74,56.75-5.61"/>
  <path class="st2" d="M532.89,272.09c18.92-1.87,37.84-3.74,56.75-5.61"/>
  <g>
    <path class="st0" d="M634.83,254.46c.88.26,1.56.97,1.79,1.85.12.47.08.97.09,1.47,0,5.13.01,10.23,0,15.35h9.15c.71,0,1.29-.04,1.96.11,1.59.4,2.77,1.85,2.77,3.56,0,1.62-1.05,3-2.51,3.49-.59.19-1.29.19-1.97.19h-9.38v39.56c0,17.18,9.94,16.28,15.83,12.89.39-.24.86-.38,1.35-.38,1.45,0,2.63,1.18,2.63,2.63,0,.71-.28,1.35-.73,1.82-5.19,6.63-13.58,9.09-21.51,9.09-8.53,0-19.01-5.68-19.01-21.85v-22.13c0-15.27.2-16.89-1.2-19.32-1.59-2.75-4.31-1.88-6.04-2.62-.48-.25-.96-.55-1.31-.96-.56-.64-.9-1.49-.9-2.41,0-.98.38-1.86,1-2.52.32-.34.73-.61,1.13-.91l24.12-18.16c.77-.62,1.61-1,2.74-.75Z"/>
    <path class="st0" d="M691.28,267.66c1.04.2,1.87,1.02,2.07,2.06.06.32.05.72.05,1.08v30.81s0,25.69,0,25.69c0,2.84.35,6.09,7.44,11.89.39.36.81.55,1.17.89.53.49.83,1.18.83,1.92,0,1.45-1.18,2.63-2.63,2.63h-35.08c-1.45,0-2.63-1.18-2.63-2.63,0-.73.31-1.43.83-1.92.37-.34.79-.53,1.17-.89,7.09-5.8,7.44-9.05,7.44-11.89v-24.58c-.02-12.48-3.08-18.58-8.17-22.42-.76-.46-1.27-1.3-1.27-2.25,0-.88.44-1.66,1.1-2.14.54-.38,1.32-.57,1.93-.88l24.16-7.19c.37-.1.77-.2,1.17-.21.13,0,.26,0,.39.03ZM687.51,239.44c3.6,2.31,5.98,6.35,5.98,10.94,0,7.17-5.82,12.99-12.99,12.99s-12.99-5.82-12.99-12.99c0-5.14,2.98-9.58,7.31-11.68,1.9-.9,3.75-1.31,5.59-1.3,2.37.02,4.71.75,7.09,2.04Z"/>
  </g>
  </g>
</svg>
