<?xml version="1.0" encoding="UTF-8"?>
<svg id="Layer_1" xmlns="http://www.w3.org/2000/svg" version="1.1" viewBox="0 0 841.89 595.28">
  <!-- Generator: Adobe Illustrator 29.8.2, SVG Export Plug-In . SVG Version: 2.1.1 Build 3)  -->
  <defs>
    <style>
      .st0 {
        fill: #3c92f0;
      }
    </style>
  </defs>
  <path class="st0" d="M612.79,175.68l-13.31,25.01c-40.32,31.12-78.02,67.35-114.46,104.71-9.71,9.95-41.73,49.58-51.48,52.02-8.8,2.2-12.87-.09-17.21-8.98-2.44-5.01-3.21-6.58-5.72-11.01-.23-.41.68-7.65.11-9.81-3.77-14.45-9.31-29.37-11.95-44.32-.77-4.39,1.63-10.49-1.76-15.12l2.43-2.15c-1.8.16-2.59-.73-3.09-2.74-.99-3.95-2.05-27.23.62-29.67l9.68,3-4.79,5.02,5.86-1.25c.49,1.91,1.39,3.68,1.92,5.56,8.67,30.76,13.84,65.13,22.02,95.75.55,2.04-.55,3.66,2.04,3.04,3.89-.92,8.41-13.19,10.97-17.08,1.17-1.78,2.94-2.14,3.78-3.35,3.32-4.78,3.28-10.21,10.63-12.44,3.3-1-.9,5.21,2.4,2.87,1.82-1.29,3.59-4.8,5.43-6.45l-4.81-2.88c-.37-1.84,3.03-5.14,4.18-6.47,18.03-20.81,40.42-40.45,60.46-57.85,1.26-1.09,3.77-4.62,4.07-6.62l2.38,2.85c-.97-7.57,6.24-7.48,8.14-9.2,4-3.63,5.85-11.89,12.37-9.43l-.71-4.38c6.86-2.68,13.83-11.83,19.98-14.86,1.23-.61,3.1.94,3.52.58.52-.44.41-4.21,1.59-5.38,1-1,5.61-1.44,7.8-2.9,6.78-4.52,12.53-14.68,20.83-8.88.24-4.53,2.06-7.17,6.03-7.17Z"/>
  <path class="st0" d="M361.4,238.16c.45.7,1.6.72,2.25,2.37,10.08,25.2,19.33,64.78,21.47,93.4.52,6.99,2.94,13.49.97,20.78-3.75,2.44-6.34-2.7-10.73-1.28,1.77-4.22-1.89-6.8-3.52-12.3-7.91-26.72-15.27-55.5-20.67-82.93l-5.26-13.61c-4.06.91-8.39,14.14-11.07,18.36-1.41,2.23-6.11,8.96-7.7,10.91-2.94,3.61-8.1,3.74-7.24,9.33l-1.91-2.95,1.92-4.21-6.02,5.02,4.79,4.28c-6.78,9.92-15.47,17.4-23.66,25.59-4.06,4.05-7.96,12.22-14.87,12.42l2.4,2.13c-4.56,3.14-7.58,8.21-11.44,12.19-9.65,9.94-20.82,19.44-31.17,28.93-3.95,3.63-5.07,10.38-11.63,8.35l.02,4.96c-6.76,2.76-12.1,10.62-18.19,14.3-1.73,1.05-3.98.43-4.69.88-.16.1,1.45,2.4-.5,4.25s-5.74,2.69-8.33,4.55c-6.87,4.94-11.95,13.73-20.08,8.33-.56,4.01-1.81,8.11-6.06,7.15,6.11-5.54,8.26-18.74,13.35-24.97,2.02-2.47,5.91-3.83,8.24-5.97,34.79-32.14,69.02-65.03,101.37-100.2,11.31-12.3,43.03-55.21,56.03-56.65,7.53-.83,7.88.22,11.95,6.58Z"/>
  <path class="st0" d="M669.89,199.55c1.7,2.98,5.7,10.82,6.51,14.45,4.49,20.06,9.77,46.87,11.6,68.52.44,5.17,2.23,32.12-.44,34.44l-8.49-1.48v-2.93s3.62-3.54,3.62-3.54l-5.86,1.25c-6.51-30.91-14.85-61.62-18.58-93.3l-3.88-12.62c-5.13,1.02-18.85,30.88-25.32,31.56-3.69.39-5.35-3.35-8.99,3.59l4.79,2.86c-2.51,2.71-4.66,5.98-7.21,8.63-5.98,6.21-17.09,17.02-23.51,22.25-11.27,9.18-23.08,21.72-35.8,30.2-2.14,1.43-3.74,5.17-8.21,4.17l1.23,4.27c-8.77.97-13.25,15.43-21.7,12.93l.69,4.38c-.94,1.51-9.31,4.92-11.45,6.46-.94.68-7.62,7.67-8.18,7.84-1.47.44-4.32-.72-5.09.13-.45.49.59,3.23-.85,4.19-1.52,1.01-5.48,1.36-8.12,2.98-4.22,2.59-9.32,7.95-13.69,9.32-2.91.91-5.4-2.33-6.36-1.72-2.3,1.45-2.56,8.19-7.22,6.54.08-2.04,2.43-2.04,3.22-3.31,2.94-4.79,7.51-17.27,10.36-20.67,1.42-1.69,11.37-6.76,14.52-9.25,35.6-28.18,70.12-58.28,103.85-90.08,10.98-10.35,40.21-44.11,50.99-48.3,4.28-1.66,10.86-3.17,14.68.37,1.48,1.37,1.79,3.95,2.91,5.89Z"/>
</svg>