<?xml version="1.0" encoding="UTF-8"?>
<svg id="Layer_1" xmlns="http://www.w3.org/2000/svg" version="1.1" viewBox="0 0 841.89 595.28">
  <!-- Generator: Adobe Illustrator 29.8.2, SVG Export Plug-In . SVG Version: 2.1.1 Build 3)  -->
  <defs>
    <style>
      .st0 {
        font-size: 149.97px;
      }

      .st0, .st1 {
        fill: #95dbf4;
        font-family: 'Blue_Cashews', 'Blue Cashews';
      }

      .st2 {
        fill: #3c92f0;
      }

      .st1 {
        font-size: 248.45px;
      }

      .st3 {
        fill: none;
        stroke: #3c92f0;
        stroke-miterlimit: 10;
        stroke-width: 11px;
      }
    </style>
  </defs>
  <text class="st1" transform="translate(139.09 353.04)"><tspan x="0" y="0">K</tspan></text>
  <g>
    <path class="st2" d="M537.98,201.44l-10.74,20.18c-32.53,25.11-62.95,54.34-92.34,84.48-7.83,8.03-33.67,40-41.53,41.97-7.1,1.78-10.39-.07-13.89-7.25-1.97-4.04-2.59-5.31-4.61-8.89-.19-.33.55-6.17.09-7.91-3.04-11.66-7.51-23.7-9.64-35.76-.62-3.54,1.31-8.47-1.42-12.2l1.96-1.74c-1.45.13-2.09-.59-2.49-2.21-.8-3.18-1.65-21.97.5-23.93l7.81,2.42-3.86,4.05,4.73-1.01c.39,1.54,1.12,2.97,1.55,4.49,7,24.82,11.17,52.55,17.77,77.25.44,1.65-.45,2.95,1.64,2.46,3.14-.74,6.79-10.64,8.85-13.78.94-1.44,2.38-1.73,3.05-2.71,2.68-3.86,2.65-8.23,8.58-10.04,2.66-.81-.72,4.2,1.94,2.32,1.47-1.04,2.9-3.88,4.38-5.2l-3.88-2.32c-.3-1.48,2.45-4.15,3.37-5.22,14.54-16.79,32.61-32.64,48.78-46.67,1.01-.88,3.04-3.73,3.29-5.34l1.92,2.3c-.79-6.11,5.03-6.03,6.56-7.42,3.23-2.93,4.72-9.6,9.98-7.61l-.57-3.53c5.54-2.16,11.16-9.54,16.12-11.99.99-.49,2.5.76,2.84.47.42-.36.33-3.4,1.28-4.34.81-.81,4.52-1.16,6.29-2.34,5.47-3.65,10.11-11.84,16.81-7.17.19-3.65,1.66-5.78,4.87-5.78Z"/>
    <path class="st2" d="M335.16,251.85c.36.56,1.29.58,1.82,1.91,8.13,20.33,15.6,52.27,17.32,75.35.42,5.64,2.37,10.89.78,16.77-3.03,1.97-5.12-2.18-8.66-1.03,1.43-3.41-1.52-5.49-2.84-9.92-6.38-21.56-12.32-44.78-16.68-66.91l-4.25-10.98c-3.28.74-6.77,11.41-8.93,14.81-1.14,1.8-4.93,7.23-6.21,8.8-2.37,2.91-6.53,3.02-5.84,7.53l-1.54-2.38,1.55-3.39-4.85,4.05,3.86,3.45c-5.47,8-12.48,14.04-19.09,20.64-3.27,3.27-6.42,9.86-12,10.02l1.94,1.72c-3.68,2.54-6.12,6.63-9.23,9.84-7.78,8.02-16.8,15.68-25.15,23.34-3.19,2.93-4.09,8.38-9.38,6.74l.02,4c-5.45,2.23-9.76,8.57-14.67,11.54-1.4.85-3.21.34-3.79.71-.13.08,1.17,1.94-.41,3.43s-4.63,2.17-6.72,3.67c-5.54,3.98-9.64,11.08-16.2,6.72-.46,3.23-1.46,6.54-4.89,5.77,4.93-4.47,6.66-15.12,10.77-20.14,1.63-2,4.77-3.09,6.65-4.82,28.07-25.93,55.68-52.47,81.79-80.84,9.13-9.92,34.72-44.55,45.2-45.71,6.07-.67,6.36.18,9.64,5.31Z"/>
    <path class="st2" d="M584.05,220.69c1.37,2.4,4.6,8.73,5.25,11.66,3.62,16.19,7.88,37.81,9.36,55.28.35,4.17,1.8,25.92-.36,27.79l-6.85-1.2v-2.37s2.92-2.86,2.92-2.86l-4.73,1.01c-5.25-24.94-11.98-49.72-14.99-75.28l-3.13-10.18c-4.14.82-15.21,24.91-20.43,25.46-2.98.32-4.32-2.7-7.25,2.89l3.87,2.31c-2.03,2.19-3.76,4.82-5.82,6.96-4.83,5.01-13.79,13.73-18.97,17.95-9.09,7.41-18.62,17.52-28.89,24.36-1.73,1.15-3.02,4.17-6.62,3.37l.99,3.45c-7.08.78-10.69,12.45-17.51,10.43l.55,3.53c-.76,1.22-7.51,3.97-9.24,5.21-.76.55-6.14,6.19-6.6,6.33-1.18.36-3.48-.58-4.11.1-.36.39.48,2.61-.69,3.38-1.23.81-4.42,1.1-6.55,2.41-3.41,2.09-7.52,6.41-11.05,7.52-2.35.74-4.36-1.88-5.13-1.39-1.86,1.17-2.07,6.61-5.82,5.28.06-1.64,1.96-1.64,2.6-2.67,2.37-3.86,6.06-13.93,8.36-16.67,1.14-1.37,9.17-5.46,11.71-7.47,28.72-22.74,56.57-47.02,83.79-72.68,8.86-8.35,32.44-35.59,41.14-38.97,3.45-1.34,8.77-2.56,11.84.3,1.19,1.11,1.45,3.19,2.34,4.75Z"/>
  </g>
  <path class="st3" d="M282.6,298.85c18.92-1.87,37.84-3.74,56.75-5.61"/>
  <path class="st3" d="M532.84,263.15c18.92-1.87,37.84-3.74,56.75-5.61"/>
  <text class="st0" transform="translate(611.78 335.68)"><tspan x="0" y="0">ti</tspan></text>
</svg>