<?xml version="1.0" encoding="UTF-8"?>
<svg id="Layer_1" xmlns="http://www.w3.org/2000/svg" version="1.1" viewBox="0 0 841.89 595.28">
  <!-- Generator: Adobe Illustrator 29.8.2, SVG Export Plug-In . SVG Version: 2.1.1 Build 3)  -->
  <defs>
    <style>
      .st0 {
        fill: none;
        stroke: #548dca;
        stroke-miterlimit: 10;
        stroke-width: 11px;
      }

      .st1 {
        font-size: 152.09px;
      }

      .st1, .st2 {
        fill: #99daf3;
        font-family: Malvides, Malvides;
      }

      .st2 {
        font-size: 251.97px;
      }

      .st3 {
        fill: #548dca;
      }
    </style>
  </defs>
  <text class="st2" transform="translate(140.57 351.63)"><tspan x="0" y="0">K</tspan></text>
  <g>
    <path class="st3" d="M544.6,197.88l-10.89,20.46c-32.99,25.46-63.84,55.11-93.65,85.67-7.95,8.14-34.15,40.57-42.12,42.56-7.2,1.8-10.53-.07-14.08-7.35-2-4.1-2.63-5.39-4.68-9.01-.19-.33.55-6.26.09-8.03-3.09-11.82-7.62-24.04-9.77-36.27-.63-3.59,1.33-8.59-1.44-12.37l1.99-1.76c-1.47.13-2.12-.6-2.53-2.24-.81-3.23-1.67-22.28.51-24.27l7.92,2.45-3.92,4.1,4.8-1.02c.4,1.56,1.14,3.01,1.57,4.55,7.1,25.17,11.32,53.29,18.02,78.35.45,1.67-.45,2.99,1.67,2.49,3.18-.75,6.88-10.79,8.97-13.98.95-1.46,2.41-1.75,3.1-2.74,2.72-3.91,2.69-8.35,8.7-10.18,2.7-.82-.73,4.26,1.96,2.35,1.49-1.06,2.94-3.93,4.45-5.27l-3.94-2.36c-.3-1.5,2.48-4.21,3.42-5.29,14.75-17.02,33.07-33.1,49.47-47.33,1.03-.89,3.08-3.78,3.33-5.42l1.95,2.33c-.8-6.19,5.1-6.12,6.66-7.53,3.27-2.97,4.79-9.73,10.12-7.72l-.58-3.58c5.62-2.19,11.32-9.68,16.35-12.16,1.01-.5,2.53.77,2.88.48.42-.36.34-3.44,1.3-4.4.82-.82,4.59-1.18,6.38-2.38,5.55-3.7,10.25-12.01,17.04-7.27.19-3.7,1.68-5.87,4.94-5.86Z"/>
    <path class="st3" d="M338.91,249.01c.37.57,1.31.59,1.84,1.94,8.24,20.62,15.82,53.01,17.56,76.42.43,5.72,2.41,11.04.79,17-3.07,2-5.19-2.21-8.78-1.05,1.45-3.45-1.54-5.57-2.88-10.06-6.47-21.87-12.49-45.41-16.92-67.85l-4.31-11.14c-3.33.75-6.87,11.57-9.06,15.02-1.15,1.82-5,7.33-6.3,8.93-2.4,2.95-6.63,3.06-5.92,7.63l-1.56-2.41,1.57-3.44-4.92,4.11,3.92,3.5c-5.54,8.12-12.66,14.24-19.36,20.93-3.32,3.32-6.52,10-12.17,10.16l1.96,1.74c-3.73,2.57-6.2,6.72-9.36,9.98-7.89,8.13-17.03,15.9-25.51,23.67-3.24,2.97-4.14,8.5-9.51,6.83l.02,4.06c-5.53,2.26-9.9,8.69-14.88,11.7-1.42.86-3.26.35-3.84.72-.13.08,1.18,1.96-.41,3.48s-4.7,2.2-6.82,3.72c-5.62,4.04-9.78,11.23-16.43,6.82-.46,3.28-1.48,6.63-4.96,5.85,5-4.54,6.76-15.33,10.92-20.43,1.65-2.02,4.84-3.13,6.74-4.89,28.47-26.3,56.47-53.21,82.94-81.99,9.26-10.06,35.21-45.18,45.84-46.35,6.16-.68,6.45.18,9.78,5.39Z"/>
    <path class="st3" d="M591.32,217.41c1.39,2.44,4.66,8.85,5.33,11.82,3.67,16.42,7.99,38.35,9.49,56.07.36,4.23,1.83,26.28-.36,28.18l-6.95-1.21v-2.4s2.96-2.9,2.96-2.9l-4.8,1.02c-5.33-25.29-12.15-50.42-15.2-76.34l-3.18-10.33c-4.2.84-15.43,25.26-20.72,25.82-3.02.32-4.38-2.74-7.36,2.93l3.92,2.34c-2.06,2.22-3.81,4.89-5.9,7.06-4.9,5.08-13.98,13.93-19.23,18.21-9.22,7.51-18.89,17.77-29.29,24.71-1.75,1.17-3.06,4.23-6.72,3.41l1,3.5c-7.18.8-10.84,12.63-17.76,10.58l.56,3.58c-.77,1.23-7.62,4.02-9.37,5.29-.77.56-6.23,6.28-6.69,6.42-1.2.36-3.53-.59-4.17.1-.36.4.49,2.64-.7,3.43-1.24.82-4.48,1.12-6.64,2.44-3.45,2.12-7.62,6.5-11.2,7.62-2.38.75-4.42-1.91-5.21-1.41-1.88,1.19-2.1,6.7-5.9,5.35.06-1.67,1.99-1.67,2.63-2.71,2.41-3.92,6.15-14.13,8.47-16.91,1.16-1.39,9.3-5.53,11.88-7.57,29.13-23.06,57.38-47.68,84.97-73.71,8.98-8.47,32.9-36.09,41.72-39.52,3.5-1.36,8.89-2.6,12.01.3,1.21,1.12,1.47,3.23,2.38,4.82Z"/>
  </g>
  <path class="st0" d="M285.6,296.67c19.19-1.9,38.37-3.79,57.56-5.69"/>
  <path class="st0" d="M539.39,260.46c19.19-1.9,38.37-3.79,57.56-5.69"/>
  <text class="st1" transform="translate(614.42 334.02)"><tspan x="0" y="0">ti</tspan></text>
</svg>